<?xml version="1.0" standalone="no"?>
<!DOCTYPE svg PUBLIC "-//W3C//DTD SVG 20010904//EN"
 "http://www.w3.org/TR/2001/REC-SVG-20010904/DTD/svg10.dtd">
<svg version="1.0" xmlns="http://www.w3.org/2000/svg"
 width="300.000000pt" height="288.000000pt" viewBox="0 0 300.000000 288.000000"
 preserveAspectRatio="xMidYMid meet">
<metadata>
Created by potrace 1.10, written by Peter Selinger 2001-2011
</metadata>
<g transform="translate(0.000000,288.000000) scale(0.100000,-0.100000)"
fill="#000000" stroke="none">
<path d="M1380 2784 c-14 -2 -52 -9 -85 -15 -280 -48 -559 -232 -720 -473
-273 -411 -254 -932 48 -1317 l49 -61 28 27 28 27 -55 71 c-73 96 -147 250
-179 372 -23 85 -27 122 -28 245 -1 231 49 401 173 590 49 74 183 213 256 265
316 224 724 256 1069 83 107 -53 156 -88 249 -177 98 -94 158 -173 212 -281
84 -168 110 -284 109 -480 -1 -123 -5 -160 -28 -245 -32 -122 -106 -276 -179
-372 l-55 -71 28 -27 28 -27 49 62 c179 220 269 535 233 816 -61 486 -407 865
-885 970 -68 15 -295 27 -345 18z"/>
<path d="M1605 2002 c-70 -165 -71 -167 -104 -170 -38 -4 -54 8 -118 91 l-45
57 32 11 c30 11 60 52 60 83 0 9 -13 30 -29 48 -29 32 -30 32 -135 36 -81 3
-106 1 -106 -9 0 -7 3 -9 6 -6 4 3 15 2 26 -4 17 -9 18 -21 16 -157 -3 -144
-3 -147 -25 -150 -13 -2 -23 -8 -23 -13 0 -5 34 -9 75 -9 43 0 75 4 75 10 0 6
-11 10 -24 10 -23 0 -25 4 -28 70 -3 65 -1 70 17 70 14 0 39 -26 78 -80 l58
-80 100 0 c59 0 99 4 99 10 0 6 -9 10 -20 10 -24 0 -25 15 -5 64 l15 36 66 0
c65 0 65 0 80 -35 19 -47 18 -61 -8 -70 -20 -7 -18 -9 14 -12 21 -2 57 -3 80
-1 42 4 42 4 17 15 -22 9 -39 41 -93 168 -36 87 -66 161 -66 166 0 32 -24 -12
-85 -159z m-260 113 c39 -38 32 -86 -16 -110 -15 -8 -38 -15 -51 -15 -22 0
-23 2 -20 75 l4 75 29 0 c18 0 39 -10 54 -25z m353 -104 c12 -30 20 -56 18
-58 -2 -2 -26 -3 -54 -1 l-50 3 26 63 c14 34 29 59 32 55 4 -5 16 -32 28 -62z"/>
<path d="M2007 2156 c-50 -18 -76 -42 -98 -91 -65 -141 47 -289 190 -253 40
10 111 72 97 85 -4 4 -17 -5 -29 -19 -60 -71 -164 -63 -201 16 -20 42 -21 135
-2 181 37 89 161 94 201 8 22 -46 29 -36 20 32 -5 47 -9 54 -19 40 -10 -14
-15 -15 -48 0 -45 18 -61 18 -111 1z"/>
<path d="M833 2149 l28 -11 -3 -151 c-3 -149 -3 -152 -25 -155 -13 -2 -23 -8
-23 -14 0 -7 41 -9 119 -7 102 3 124 7 148 25 55 41 57 117 3 137 -35 13 -38
23 -11 32 26 8 43 59 31 90 -18 47 -54 60 -180 62 -91 2 -109 0 -87 -8z m197
-34 c23 -21 26 -63 6 -90 -9 -13 -30 -20 -70 -23 l-56 -4 0 72 0 73 50 -5 c28
-3 59 -13 70 -23z m10 -160 c25 -23 27 -76 3 -97 -24 -21 -69 -30 -104 -23
-29 6 -29 8 -29 77 l0 70 55 -4 c34 -3 62 -12 75 -23z"/>
<path d="M1810 1667 c-17 -9 -26 -22 -28 -44 -3 -29 2 -35 52 -67 59 -38 69
-58 36 -76 -28 -15 -57 -4 -75 28 l-14 27 -1 -35 c0 -34 1 -35 45 -38 104 -7
128 70 36 117 -54 28 -69 48 -48 68 22 23 63 10 75 -24 10 -28 10 -28 11 8 1
22 -4 36 -11 36 -7 0 -22 3 -33 6 -11 4 -31 1 -45 -6z"/>
<path d="M603 1663 c14 -4 17 -16 17 -74 0 -68 11 -106 34 -121 19 -13 81 -9
104 8 20 13 22 24 22 94 0 84 6 96 46 86 23 -6 24 -10 24 -91 0 -69 -3 -86
-17 -94 -14 -8 -8 -10 27 -10 25 1 37 3 28 6 -13 3 -17 19 -20 76 -2 40 -3 73
-2 75 1 2 31 -33 66 -77 34 -44 66 -80 71 -80 4 -1 7 44 7 99 l0 100 30 0 30
0 0 -94 c0 -82 -2 -95 -17 -99 -10 -3 7 -5 37 -5 30 0 48 2 40 5 -25 10 -30
25 -30 105 0 63 3 79 18 87 12 8 -7 10 -73 10 -49 -1 -82 -3 -72 -6 14 -4 17
-16 17 -76 -1 -59 -3 -69 -13 -56 -7 8 -34 43 -61 77 l-49 62 -66 0 c-50 -1
-62 -3 -48 -11 12 -7 17 -23 17 -58 0 -77 -9 -108 -36 -120 -34 -15 -41 -14
-64 9 -28 28 -29 153 -2 169 13 8 5 10 -33 10 -27 -1 -42 -3 -32 -6z"/>
<path d="M1154 1657 c10 -7 35 -52 55 -99 20 -47 40 -87 45 -89 4 -2 24 34 43
81 19 47 42 93 51 103 14 16 13 17 -18 17 -25 0 -30 -3 -22 -12 7 -9 2 -33
-17 -81 l-28 -69 -26 62 c-30 68 -33 86 -14 93 6 3 -10 6 -37 6 -44 1 -48 -1
-32 -12z"/>
<path d="M1383 1663 c15 -4 17 -17 17 -93 0 -74 -3 -91 -17 -99 -13 -8 3 -10
63 -11 78 0 81 1 93 26 14 32 7 44 -9 15 -8 -17 -20 -21 -55 -21 l-45 0 0 40
c0 39 1 40 34 40 24 0 36 -5 39 -17 3 -10 5 2 5 27 0 25 -2 37 -5 28 -3 -13
-15 -18 -39 -18 -33 0 -34 1 -34 41 l0 41 38 -6 c20 -3 40 -5 44 -6 3 0 9 -8
11 -17 3 -11 5 -7 6 10 l1 27 -82 -1 c-46 -1 -75 -3 -65 -6z"/>
<path d="M1573 1659 c14 -8 17 -25 17 -94 0 -69 -3 -86 -17 -94 -14 -8 -6 -10
32 -10 28 1 42 3 33 6 -14 3 -18 15 -18 49 0 24 4 44 9 44 5 0 25 -22 45 -50
26 -37 42 -50 61 -50 23 0 22 3 -20 46 -25 25 -45 49 -45 53 0 3 10 11 23 16
13 6 23 21 25 37 5 39 -29 58 -103 58 -46 -1 -56 -3 -42 -11z m88 -9 c36 -20
18 -80 -23 -80 -14 0 -18 8 -18 38 0 52 7 59 41 42z"/>
<path d="M1953 1659 c14 -8 17 -25 17 -94 0 -69 -3 -86 -17 -94 -14 -8 -6 -10
32 -10 28 1 42 3 33 6 -16 4 -18 17 -18 98 0 81 2 94 18 98 9 3 -5 5 -33 6
-38 0 -46 -2 -32 -10z"/>
<path d="M2040 1643 c1 -25 2 -26 14 -10 7 9 23 17 35 17 20 0 21 -5 21 -89 0
-77 -2 -90 -17 -94 -10 -3 7 -5 37 -5 30 0 48 2 40 5 -25 10 -30 25 -30 106 0
77 0 77 26 77 15 0 33 -8 40 -17 12 -16 13 -15 14 10 l0 27 -90 0 -90 0 0 -27z"/>
<path d="M2241 1657 c29 -22 79 -114 79 -145 0 -19 -7 -35 -17 -41 -14 -8 -7
-10 32 -10 39 0 46 2 33 10 -30 17 -22 72 17 133 19 30 43 57 52 59 10 3 -2 5
-27 5 -25 0 -39 -2 -32 -5 18 -7 15 -20 -12 -59 l-24 -36 -26 38 c-31 46 -32
51 -8 57 9 3 -5 5 -33 6 -41 0 -47 -2 -34 -12z"/>
<path d="M2066 1344 c-190 -55 -342 -134 -498 -260 l-68 -55 -62 49 c-155 122
-323 210 -497 261 -140 42 -141 42 -141 -14 0 -36 3 -45 18 -45 35 0 257 -81
340 -125 48 -25 131 -78 184 -120 89 -69 97 -78 100 -112 l3 -38 55 0 55 0 3
40 c3 36 10 45 72 95 144 115 339 214 488 248 l72 17 0 47 c0 27 -1 48 -2 48
-2 -1 -56 -17 -122 -36z m-1075 -58 c101 -33 141 -51 132 -59 -3 -4 4 -7 16
-7 12 0 38 -11 59 -23 20 -13 69 -44 107 -68 39 -24 72 -46 75 -50 3 -3 25
-20 49 -37 67 -49 87 -45 192 38 24 19 53 40 64 47 11 7 57 34 101 62 45 27
101 56 125 64 24 9 52 18 62 22 9 4 17 3 17 -3 0 -6 -22 -16 -50 -23 -27 -7
-50 -16 -50 -19 0 -4 -21 -18 -47 -31 -27 -13 -67 -36 -89 -51 -23 -16 -45
-28 -49 -28 -7 0 -73 -50 -123 -95 -19 -16 -42 -46 -51 -65 -23 -50 -42 -48
-70 5 -13 26 -32 50 -42 55 -10 6 -23 16 -31 23 -25 23 -96 77 -103 77 -3 0
-21 11 -38 24 -61 47 -227 119 -319 140 -16 4 -28 11 -28 16 0 14 9 13 91 -14z"/>
<path d="M800 1079 l0 -44 93 -27 c188 -54 330 -128 484 -250 53 -42 62 -54
65 -86 l3 -37 55 0 55 0 3 40 c3 36 10 45 73 95 147 115 336 211 491 249 l68
16 0 44 0 43 -37 -7 c-59 -11 -217 -63 -289 -96 -76 -34 -211 -120 -302 -191
l-63 -50 -57 44 c-88 70 -209 146 -297 188 -81 38 -239 92 -307 105 l-38 7 0
-43z m718 -328 c14 6 33 15 40 22 8 6 3 -6 -12 -27 -14 -21 -26 -45 -26 -52 0
-24 -36 -15 -48 10 -6 14 -28 43 -48 66 l-37 41 52 -35 c45 -30 56 -34 79 -25z"/>
<path d="M802 835 l3 -47 90 -27 c196 -59 322 -124 470 -242 65 -52 74 -63 77
-96 l3 -37 55 0 55 -1 5 41 c4 34 13 48 50 79 159 133 331 218 568 281 7 2 12
21 12 49 l0 47 -32 -7 c-125 -27 -325 -106 -423 -167 -63 -40 -183 -129 -213
-157 l-23 -22 -44 39 c-60 53 -167 124 -267 177 -76 41 -277 114 -356 130
l-33 7 3 -47z m188 -37 c146 -47 295 -128 431 -234 30 -24 65 -44 77 -44 11 0
49 22 84 48 159 121 264 180 413 230 123 42 165 49 165 28 0 -9 -12 -18 -27
-22 -132 -30 -332 -126 -463 -220 -92 -66 -124 -98 -137 -139 -6 -19 -17 -31
-31 -33 -18 -3 -26 5 -41 40 -14 34 -38 58 -117 116 -142 105 -269 169 -439
219 -56 17 -78 31 -69 45 7 12 30 7 154 -34z"/>
</g>
</svg>
